# MagicaVoxel @ Ephtracy

# group
o 

# material
mtllib ExtendableBush.mtl
usemtl palette

# normals
vn -1 0 0
vn 1 0 0
vn 0 0 1
vn 0 0 -1
vn 0 -1 0
vn 0 1 0

# texcoords
vt 0.00195312 0.5
vt 0.0136719 0.5
vt 0.0175781 0.5
vt 0.607422 0.5
vt 0.630859 0.5

# verts
v -1 0 0.3
v -1 0 -0.7
v -1 1 0.3
v -1 1 -0.7
v -1 1.6 0.3
v -1 1.6 -0.7
v 1 0 0.3
v 1 0 -0.7
v 1 1 0.3
v 1 1 -0.7
v 1 1.6 0.3
v 1 1.6 -0.7
v -1 0 0.3
v -1 1 0.3
v -1 1.6 0.3
v -0.8 1 0.3
v -0.8 1.2 0.3
v -0.7 1.2 0.3
v -0.7 1.3 0.3
v -0.6 1.1 0.3
v -0.6 1.3 0.3
v -0.5 1 0.3
v -0.5 1.1 0.3
v -0.4 1 0.3
v -0.4 1.1 0.3
v -0.2 1.1 0.3
v -0.2 1.3 0.3
v 0 1.2 0.3
v 0 1.3 0.3
v 0.2 1.1 0.3
v 0.2 1.2 0.3
v 0.3 1 0.3
v 0.3 1.1 0.3
v 0.5 1 0.3
v 0.5 1.1 0.3
v 0.9 1 0.3
v 0.9 1.1 0.3
v 1 0 0.3
v 1 1 0.3
v 1 1.6 0.3
v -1 0 -0.7
v -1 1 -0.7
v -1 1.6 -0.7
v -0.9 1 -0.7
v -0.9 1.1 -0.7
v -0.3 1 -0.7
v -0.3 1.1 -0.7
v 0 1 -0.7
v 0 1.1 -0.7
v 0.1 1.1 -0.7
v 0.1 1.2 -0.7
v 0.3 1.1 -0.7
v 0.3 1.2 -0.7
v 0.4 1 -0.7
v 0.4 1.1 -0.7
v 0.6 1 -0.7
v 0.6 1.1 -0.7
v 0.9 1 -0.7
v 0.9 1.1 -0.7
v 1 0 -0.7
v 1 1 -0.7
v 1 1.6 -0.7
v -1 0 0.3
v 1 0 0.3
v -1 0 -0.7
v 1 0 -0.7
v -1 1.6 0.3
v 1 1.6 0.3
v -0.7 1.6 0.2
v -0.6 1.6 0.2
v 0.2 1.6 0.2
v 0.3 1.6 0.2
v 0.7 1.6 0.2
v 0.8 1.6 0.2
v -0.8 1.6 0.1
v -0.7 1.6 0.1
v -0.6 1.6 0.1
v -0.5 1.6 0.1
v -0.2 1.6 0.1
v -0.1 1.6 0.1
v 0.1 1.6 0.1
v 0.2 1.6 0.1
v 0.3 1.6 0.1
v 0.4 1.6 0.1
v 0.6 1.6 0.1
v 0.7 1.6 0.1
v 0.8 1.6 0.1
v 0.9 1.6 0.1
v -0.8 1.6 -2.98023e-08
v -0.7 1.6 -2.98023e-08
v -0.6 1.6 -2.98023e-08
v -0.5 1.6 -2.98023e-08
v -0.2 1.6 -2.98023e-08
v -0.1 1.6 -2.98023e-08
v 0.1 1.6 -2.98023e-08
v 0.2 1.6 -2.98023e-08
v 0.3 1.6 -2.98023e-08
v 0.4 1.6 -2.98023e-08
v 0.6 1.6 -2.98023e-08
v 0.7 1.6 -2.98023e-08
v 0.8 1.6 -2.98023e-08
v 0.9 1.6 -2.98023e-08
v -0.7 1.6 -0.1
v -0.6 1.6 -0.1
v 0.2 1.6 -0.1
v 0.3 1.6 -0.1
v 0.7 1.6 -0.1
v 0.8 1.6 -0.1
v -0.3 1.6 -0.2
v -0.2 1.6 -0.2
v -0.4 1.6 -0.3
v -0.3 1.6 -0.3
v -0.2 1.6 -0.3
v -0.1 1.6 -0.3
v 0.5 1.6 -0.3
v 0.6 1.6 -0.3
v -0.8 1.6 -0.4
v -0.7 1.6 -0.4
v -0.4 1.6 -0.4
v -0.3 1.6 -0.4
v -0.2 1.6 -0.4
v -0.1 1.6 -0.4
v 0.1 1.6 -0.4
v 0.2 1.6 -0.4
v 0.4 1.6 -0.4
v 0.5 1.6 -0.4
v 0.6 1.6 -0.4
v 0.7 1.6 -0.4
v 0.8 1.6 -0.4
v 0.9 1.6 -0.4
v -0.8 1.6 -0.5
v -0.7 1.6 -0.5
v -0.3 1.6 -0.5
v -0.2 1.6 -0.5
v 0.1 1.6 -0.5
v 0.2 1.6 -0.5
v 0.4 1.6 -0.5
v 0.5 1.6 -0.5
v 0.6 1.6 -0.5
v 0.7 1.6 -0.5
v 0.8 1.6 -0.5
v 0.9 1.6 -0.5
v 0.5 1.6 -0.6
v 0.6 1.6 -0.6
v -1 1.6 -0.7
v 1 1.6 -0.7

# faces
f 3/5/1 2/5/1 1/5/1
f 4/5/1 2/5/1 3/5/1
f 5/4/1 4/4/1 3/4/1
f 6/4/1 4/4/1 5/4/1
f 7/5/2 8/5/2 9/5/2
f 9/5/2 8/5/2 10/5/2
f 9/4/2 10/4/2 11/4/2
f 11/4/2 10/4/2 12/4/2
f 16/5/3 14/5/3 13/5/3
f 16/4/3 15/4/3 14/4/3
f 17/4/3 15/4/3 16/4/3
f 18/5/3 17/5/3 16/5/3
f 18/4/3 15/4/3 17/4/3
f 19/4/3 15/4/3 18/4/3
f 20/5/3 18/5/3 16/5/3
f 20/5/3 19/5/3 18/5/3
f 21/4/3 15/4/3 19/4/3
f 21/5/3 19/5/3 20/5/3
f 22/5/3 16/5/3 13/5/3
f 22/5/3 20/5/3 16/5/3
f 23/4/3 21/4/3 20/4/3
f 23/5/3 20/5/3 22/5/3
f 24/5/3 22/5/3 13/5/3
f 24/4/3 23/4/3 22/4/3
f 25/4/3 21/4/3 23/4/3
f 25/4/3 23/4/3 24/4/3
f 26/5/3 25/5/3 24/5/3
f 26/4/3 21/4/3 25/4/3
f 27/4/3 15/4/3 21/4/3
f 27/4/3 21/4/3 26/4/3
f 28/5/3 27/5/3 26/5/3
f 29/4/3 15/4/3 27/4/3
f 29/5/3 27/5/3 28/5/3
f 30/5/3 26/5/3 24/5/3
f 30/5/3 28/5/3 26/5/3
f 31/4/3 29/4/3 28/4/3
f 31/5/3 28/5/3 30/5/3
f 32/5/3 24/5/3 13/5/3
f 32/5/3 30/5/3 24/5/3
f 33/4/3 31/4/3 30/4/3
f 33/5/3 30/5/3 32/5/3
f 34/5/3 32/5/3 13/5/3
f 34/4/3 33/4/3 32/4/3
f 35/4/3 31/4/3 33/4/3
f 35/4/3 33/4/3 34/4/3
f 36/5/3 34/5/3 13/5/3
f 36/5/3 35/5/3 34/5/3
f 37/4/3 31/4/3 35/4/3
f 37/5/3 35/5/3 36/5/3
f 38/5/3 36/5/3 13/5/3
f 39/4/3 37/4/3 36/4/3
f 39/5/3 36/5/3 38/5/3
f 40/4/3 15/4/3 29/4/3
f 40/4/3 37/4/3 39/4/3
f 40/4/3 29/4/3 31/4/3
f 40/4/3 31/4/3 37/4/3
f 41/5/4 42/5/4 44/5/4
f 42/4/4 43/4/4 44/4/4
f 44/4/4 43/4/4 45/4/4
f 41/5/4 44/5/4 46/5/4
f 44/5/4 45/5/4 46/5/4
f 45/4/4 43/4/4 47/4/4
f 46/5/4 45/5/4 47/5/4
f 41/5/4 46/5/4 48/5/4
f 46/4/4 47/4/4 48/4/4
f 47/4/4 43/4/4 49/4/4
f 48/4/4 47/4/4 49/4/4
f 48/5/4 49/5/4 50/5/4
f 49/4/4 43/4/4 50/4/4
f 50/4/4 43/4/4 51/4/4
f 48/5/4 50/5/4 52/5/4
f 50/5/4 51/5/4 52/5/4
f 51/4/4 43/4/4 53/4/4
f 52/5/4 51/5/4 53/5/4
f 41/5/4 48/5/4 54/5/4
f 48/5/4 52/5/4 54/5/4
f 52/4/4 53/4/4 55/4/4
f 54/5/4 52/5/4 55/5/4
f 41/5/4 54/5/4 56/5/4
f 54/4/4 55/4/4 56/4/4
f 55/4/4 53/4/4 57/4/4
f 56/4/4 55/4/4 57/4/4
f 41/5/4 56/5/4 58/5/4
f 56/5/4 57/5/4 58/5/4
f 57/4/4 53/4/4 59/4/4
f 58/5/4 57/5/4 59/5/4
f 41/5/4 58/5/4 60/5/4
f 58/4/4 59/4/4 61/4/4
f 60/5/4 58/5/4 61/5/4
f 53/4/4 43/4/4 62/4/4
f 61/4/4 59/4/4 62/4/4
f 59/4/4 53/4/4 62/4/4
f 65/5/5 64/5/5 63/5/5
f 66/5/5 64/5/5 65/5/5
f 67/4/6 68/4/6 69/4/6
f 69/4/6 68/4/6 70/4/6
f 70/4/6 68/4/6 71/4/6
f 71/4/6 68/4/6 72/4/6
f 72/4/6 68/4/6 73/4/6
f 73/4/6 68/4/6 74/4/6
f 67/4/6 69/4/6 75/4/6
f 69/1/6 70/1/6 76/1/6
f 75/4/6 69/4/6 76/4/6
f 70/4/6 71/4/6 77/4/6
f 76/1/6 70/1/6 77/1/6
f 77/4/6 71/4/6 78/4/6
f 78/4/6 71/4/6 79/4/6
f 79/4/6 71/4/6 80/4/6
f 80/4/6 71/4/6 81/4/6
f 71/1/6 72/1/6 82/1/6
f 81/4/6 71/4/6 82/4/6
f 72/4/6 73/4/6 83/4/6
f 82/1/6 72/1/6 83/1/6
f 83/4/6 73/4/6 84/4/6
f 84/4/6 73/4/6 85/4/6
f 73/1/6 74/1/6 86/1/6
f 85/4/6 73/4/6 86/4/6
f 74/4/6 68/4/6 87/4/6
f 86/1/6 74/1/6 87/1/6
f 87/4/6 68/4/6 88/4/6
f 67/4/6 75/4/6 89/4/6
f 75/1/6 76/1/6 89/1/6
f 76/2/6 77/2/6 90/2/6
f 89/1/6 76/1/6 90/1/6
f 77/1/6 78/1/6 91/1/6
f 90/2/6 77/2/6 91/2/6
f 78/4/6 79/4/6 92/4/6
f 91/1/6 78/1/6 92/1/6
f 79/1/6 80/1/6 93/1/6
f 92/4/6 79/4/6 93/4/6
f 80/4/6 81/4/6 94/4/6
f 93/1/6 80/1/6 94/1/6
f 81/1/6 82/1/6 95/1/6
f 94/4/6 81/4/6 95/4/6
f 82/3/6 83/3/6 96/3/6
f 95/1/6 82/1/6 96/1/6
f 83/1/6 84/1/6 97/1/6
f 96/3/6 83/3/6 97/3/6
f 84/4/6 85/4/6 98/4/6
f 97/1/6 84/1/6 98/1/6
f 85/1/6 86/1/6 99/1/6
f 98/4/6 85/4/6 99/4/6
f 86/3/6 87/3/6 100/3/6
f 99/1/6 86/1/6 100/1/6
f 87/1/6 88/1/6 101/1/6
f 100/3/6 87/3/6 101/3/6
f 88/4/6 68/4/6 102/4/6
f 101/1/6 88/1/6 102/1/6
f 89/4/6 90/4/6 103/4/6
f 90/1/6 91/1/6 103/1/6
f 92/4/6 93/4/6 104/4/6
f 103/1/6 91/1/6 104/1/6
f 93/4/6 94/4/6 104/4/6
f 91/4/6 92/4/6 104/4/6
f 95/4/6 96/4/6 104/4/6
f 94/4/6 95/4/6 104/4/6
f 96/1/6 97/1/6 105/1/6
f 104/4/6 96/4/6 105/4/6
f 97/4/6 98/4/6 106/4/6
f 105/1/6 97/1/6 106/1/6
f 99/4/6 100/4/6 106/4/6
f 98/4/6 99/4/6 106/4/6
f 100/1/6 101/1/6 107/1/6
f 106/4/6 100/4/6 107/4/6
f 101/4/6 102/4/6 108/4/6
f 107/1/6 101/1/6 108/1/6
f 104/4/6 105/4/6 109/4/6
f 105/4/6 106/4/6 109/4/6
f 107/4/6 108/4/6 109/4/6
f 106/4/6 107/4/6 109/4/6
f 103/4/6 104/4/6 109/4/6
f 109/4/6 108/4/6 110/4/6
f 103/4/6 109/4/6 111/4/6
f 109/1/6 110/1/6 112/1/6
f 111/4/6 109/4/6 112/4/6
f 110/4/6 108/4/6 113/4/6
f 112/1/6 110/1/6 113/1/6
f 113/4/6 108/4/6 114/4/6
f 114/4/6 108/4/6 115/4/6
f 115/4/6 108/4/6 116/4/6
f 67/4/6 89/4/6 117/4/6
f 89/4/6 103/4/6 117/4/6
f 103/4/6 111/4/6 117/4/6
f 117/4/6 111/4/6 118/4/6
f 111/1/6 112/1/6 119/1/6
f 118/4/6 111/4/6 119/4/6
f 112/2/6 113/2/6 120/2/6
f 119/1/6 112/1/6 120/1/6
f 113/1/6 114/1/6 121/1/6
f 120/2/6 113/2/6 121/2/6
f 114/4/6 115/4/6 122/4/6
f 121/1/6 114/1/6 122/1/6
f 122/4/6 115/4/6 123/4/6
f 123/4/6 115/4/6 124/4/6
f 124/4/6 115/4/6 125/4/6
f 115/1/6 116/1/6 126/1/6
f 125/4/6 115/4/6 126/4/6
f 116/4/6 108/4/6 127/4/6
f 126/1/6 116/1/6 127/1/6
f 127/4/6 108/4/6 128/4/6
f 108/4/6 102/4/6 129/4/6
f 128/4/6 108/4/6 129/4/6
f 102/4/6 68/4/6 130/4/6
f 129/4/6 102/4/6 130/4/6
f 117/1/6 118/1/6 131/1/6
f 67/4/6 117/4/6 131/4/6
f 118/4/6 119/4/6 132/4/6
f 131/1/6 118/1/6 132/1/6
f 119/4/6 120/4/6 132/4/6
f 120/1/6 121/1/6 133/1/6
f 132/4/6 120/4/6 133/4/6
f 121/4/6 122/4/6 134/4/6
f 133/1/6 121/1/6 134/1/6
f 122/4/6 123/4/6 134/4/6
f 123/1/6 124/1/6 135/1/6
f 134/4/6 123/4/6 135/4/6
f 124/4/6 125/4/6 136/4/6
f 135/1/6 124/1/6 136/1/6
f 125/1/6 126/1/6 137/1/6
f 136/4/6 125/4/6 137/4/6
f 126/3/6 127/3/6 138/3/6
f 137/1/6 126/1/6 138/1/6
f 127/1/6 128/1/6 139/1/6
f 138/3/6 127/3/6 139/3/6
f 128/4/6 129/4/6 140/4/6
f 139/1/6 128/1/6 140/1/6
f 129/1/6 130/1/6 141/1/6
f 140/4/6 129/4/6 141/4/6
f 130/4/6 68/4/6 142/4/6
f 141/1/6 130/1/6 142/1/6
f 137/4/6 138/4/6 143/4/6
f 135/4/6 136/4/6 143/4/6
f 138/1/6 139/1/6 143/1/6
f 133/4/6 134/4/6 143/4/6
f 132/4/6 133/4/6 143/4/6
f 134/4/6 135/4/6 143/4/6
f 136/4/6 137/4/6 143/4/6
f 131/4/6 132/4/6 143/4/6
f 141/4/6 142/4/6 144/4/6
f 143/1/6 139/1/6 144/1/6
f 139/4/6 140/4/6 144/4/6
f 140/4/6 141/4/6 144/4/6
f 131/4/6 143/4/6 145/4/6
f 67/4/6 131/4/6 145/4/6
f 143/4/6 144/4/6 145/4/6
f 142/4/6 68/4/6 146/4/6
f 145/4/6 144/4/6 146/4/6
f 144/4/6 142/4/6 146/4/6
