# MagicaVoxel @ Ephtracy

# group
o 

# material
mtllib Sword.mtl
usemtl palette

# normals
vn -1 0 0
vn 1 0 0
vn 0 0 1
vn 0 0 -1
vn 0 -1 0
vn 0 1 0

# texcoords
vt 0.107422 0.5
vt 0.310547 0.5
vt 0.677734 0.5
vt 0.685547 0.5
vt 0.689453 0.5
vt 0.958984 0.5

# verts
v -0.5 0.4 -3.72529e-08
v -0.5 0.4 -0.1
v -0.5 0.5 -3.72529e-08
v -0.5 0.5 -0.1
v -0.4 0.2 -3.72529e-08
v -0.4 0.2 -0.1
v -0.4 0.4 -3.72529e-08
v -0.4 0.4 -0.1
v -0.4 0.5 -3.72529e-08
v -0.4 0.5 -0.1
v -0.4 0.8 -3.72529e-08
v -0.4 0.8 -0.1
v -0.4 1 -3.72529e-08
v -0.4 1 -0.1
v -0.4 1.2 -3.72529e-08
v -0.4 1.2 -0.1
v -0.3 0.1 -3.72529e-08
v -0.3 0.1 -0.1
v -0.3 0.2 -3.72529e-08
v -0.3 0.2 -0.1
v -0.3 1.2 -3.72529e-08
v -0.3 1.2 -0.1
v -0.3 1.3 -3.72529e-08
v -0.3 1.3 -0.1
v -0.2 0.1 -3.72529e-08
v -0.2 0.1 -0.1
v -0.2 0.2 -3.72529e-08
v -0.2 0.2 -0.1
v -0.2 1.2 -3.72529e-08
v -0.2 1.2 -0.1
v -0.2 1.3 -3.72529e-08
v -0.2 1.3 -0.1
v -0.1 0.2 -3.72529e-08
v -0.1 0.2 -0.1
v -0.1 0.4 -3.72529e-08
v -0.1 0.4 -0.1
v -0.1 0.5 -3.72529e-08
v -0.1 0.5 -0.1
v -0.1 1.2 -3.72529e-08
v -0.1 1.2 -0.1
v 0 0.4 -3.72529e-08
v 0 0.4 -0.1
v 0 0.5 -3.72529e-08
v 0 0.5 -0.1
v -0.5 0.4 -3.72529e-08
v -0.5 0.5 -3.72529e-08
v -0.4 0.2 -3.72529e-08
v -0.4 0.4 -3.72529e-08
v -0.4 0.5 -3.72529e-08
v -0.4 0.8 -3.72529e-08
v -0.4 1 -3.72529e-08
v -0.4 1.2 -3.72529e-08
v -0.3 0.1 -3.72529e-08
v -0.3 0.2 -3.72529e-08
v -0.3 0.3 -3.72529e-08
v -0.3 0.4 -3.72529e-08
v -0.3 0.5 -3.72529e-08
v -0.3 0.8 -3.72529e-08
v -0.3 1 -3.72529e-08
v -0.3 1.2 -3.72529e-08
v -0.3 1.3 -3.72529e-08
v -0.2 0.1 -3.72529e-08
v -0.2 0.2 -3.72529e-08
v -0.2 0.3 -3.72529e-08
v -0.2 0.4 -3.72529e-08
v -0.2 0.5 -3.72529e-08
v -0.2 0.8 -3.72529e-08
v -0.2 1.2 -3.72529e-08
v -0.2 1.3 -3.72529e-08
v -0.1 0.2 -3.72529e-08
v -0.1 0.4 -3.72529e-08
v -0.1 0.5 -3.72529e-08
v -0.1 1.2 -3.72529e-08
v 0 0.4 -3.72529e-08
v 0 0.5 -3.72529e-08
v -0.5 0.4 -0.1
v -0.5 0.5 -0.1
v -0.4 0.2 -0.1
v -0.4 0.4 -0.1
v -0.4 0.5 -0.1
v -0.4 0.8 -0.1
v -0.4 1 -0.1
v -0.4 1.2 -0.1
v -0.3 0.1 -0.1
v -0.3 0.2 -0.1
v -0.3 0.3 -0.1
v -0.3 0.4 -0.1
v -0.3 0.5 -0.1
v -0.3 0.8 -0.1
v -0.3 1 -0.1
v -0.3 1.2 -0.1
v -0.3 1.3 -0.1
v -0.2 0.1 -0.1
v -0.2 0.2 -0.1
v -0.2 0.3 -0.1
v -0.2 0.4 -0.1
v -0.2 0.5 -0.1
v -0.2 0.8 -0.1
v -0.2 1.2 -0.1
v -0.2 1.3 -0.1
v -0.1 0.2 -0.1
v -0.1 0.4 -0.1
v -0.1 0.5 -0.1
v -0.1 1.2 -0.1
v 0 0.4 -0.1
v 0 0.5 -0.1
v -0.3 0.1 -3.72529e-08
v -0.2 0.1 -3.72529e-08
v -0.3 0.1 -0.1
v -0.2 0.1 -0.1
v -0.4 0.2 -3.72529e-08
v -0.3 0.2 -3.72529e-08
v -0.2 0.2 -3.72529e-08
v -0.1 0.2 -3.72529e-08
v -0.4 0.2 -0.1
v -0.3 0.2 -0.1
v -0.2 0.2 -0.1
v -0.1 0.2 -0.1
v -0.5 0.4 -3.72529e-08
v -0.4 0.4 -3.72529e-08
v -0.1 0.4 -3.72529e-08
v 0 0.4 -3.72529e-08
v -0.5 0.4 -0.1
v -0.4 0.4 -0.1
v -0.1 0.4 -0.1
v 0 0.4 -0.1
v -0.5 0.5 -3.72529e-08
v -0.4 0.5 -3.72529e-08
v -0.1 0.5 -3.72529e-08
v 0 0.5 -3.72529e-08
v -0.5 0.5 -0.1
v -0.4 0.5 -0.1
v -0.1 0.5 -0.1
v 0 0.5 -0.1
v -0.4 1.2 -3.72529e-08
v -0.3 1.2 -3.72529e-08
v -0.2 1.2 -3.72529e-08
v -0.1 1.2 -3.72529e-08
v -0.4 1.2 -0.1
v -0.3 1.2 -0.1
v -0.2 1.2 -0.1
v -0.1 1.2 -0.1
v -0.3 1.3 -3.72529e-08
v -0.2 1.3 -3.72529e-08
v -0.3 1.3 -0.1
v -0.2 1.3 -0.1

# faces
f 3/1/1 2/1/1 1/1/1
f 4/1/1 2/1/1 3/1/1
f 7/2/1 6/2/1 5/2/1
f 8/2/1 6/2/1 7/2/1
f 11/5/1 10/5/1 9/5/1
f 12/5/1 10/5/1 11/5/1
f 13/3/1 12/3/1 11/3/1
f 14/3/1 12/3/1 13/3/1
f 15/6/1 14/6/1 13/6/1
f 16/6/1 14/6/1 15/6/1
f 19/1/1 18/1/1 17/1/1
f 20/1/1 18/1/1 19/1/1
f 23/6/1 22/6/1 21/6/1
f 24/6/1 22/6/1 23/6/1
f 25/1/2 26/1/2 27/1/2
f 27/1/2 26/1/2 28/1/2
f 29/6/2 30/6/2 31/6/2
f 31/6/2 30/6/2 32/6/2
f 33/2/2 34/2/2 35/2/2
f 35/2/2 34/2/2 36/2/2
f 37/4/2 38/4/2 39/4/2
f 39/4/2 38/4/2 40/4/2
f 41/1/2 42/1/2 43/1/2
f 43/1/2 42/1/2 44/1/2
f 48/1/3 46/1/3 45/1/3
f 49/1/3 46/1/3 48/1/3
f 54/2/3 48/2/3 47/2/3
f 55/2/3 48/2/3 54/2/3
f 56/1/3 49/1/3 48/1/3
f 56/2/3 48/2/3 55/2/3
f 57/5/3 50/5/3 49/5/3
f 57/1/3 49/1/3 56/1/3
f 58/3/3 51/3/3 50/3/3
f 58/5/3 50/5/3 57/5/3
f 59/6/3 52/6/3 51/6/3
f 59/3/3 51/3/3 58/3/3
f 60/6/3 52/6/3 59/6/3
f 62/1/3 54/1/3 53/1/3
f 63/2/3 55/2/3 54/2/3
f 63/1/3 54/1/3 62/1/3
f 64/1/3 56/1/3 55/1/3
f 64/2/3 55/2/3 63/2/3
f 65/2/3 57/2/3 56/2/3
f 65/1/3 56/1/3 64/1/3
f 66/4/3 58/4/3 57/4/3
f 66/2/3 57/2/3 65/2/3
f 67/5/3 59/5/3 58/5/3
f 67/4/3 58/4/3 66/4/3
f 67/5/3 60/5/3 59/5/3
f 68/6/3 61/6/3 60/6/3
f 68/5/3 60/5/3 67/5/3
f 69/6/3 61/6/3 68/6/3
f 70/2/3 65/2/3 64/2/3
f 70/2/3 64/2/3 63/2/3
f 71/1/3 66/1/3 65/1/3
f 71/2/3 65/2/3 70/2/3
f 72/4/3 68/4/3 67/4/3
f 72/1/3 66/1/3 71/1/3
f 72/4/3 67/4/3 66/4/3
f 73/4/3 68/4/3 72/4/3
f 74/1/3 72/1/3 71/1/3
f 75/1/3 72/1/3 74/1/3
f 76/1/4 77/1/4 79/1/4
f 79/1/4 77/1/4 80/1/4
f 78/2/4 79/2/4 85/2/4
f 85/2/4 79/2/4 86/2/4
f 79/1/4 80/1/4 87/1/4
f 86/2/4 79/2/4 87/2/4
f 80/5/4 81/5/4 88/5/4
f 87/1/4 80/1/4 88/1/4
f 81/3/4 82/3/4 89/3/4
f 88/5/4 81/5/4 89/5/4
f 82/6/4 83/6/4 90/6/4
f 89/3/4 82/3/4 90/3/4
f 90/6/4 83/6/4 91/6/4
f 84/1/4 85/1/4 93/1/4
f 85/2/4 86/2/4 94/2/4
f 93/1/4 85/1/4 94/1/4
f 86/1/4 87/1/4 95/1/4
f 94/2/4 86/2/4 95/2/4
f 87/2/4 88/2/4 96/2/4
f 95/1/4 87/1/4 96/1/4
f 88/4/4 89/4/4 97/4/4
f 96/2/4 88/2/4 97/2/4
f 89/5/4 90/5/4 98/5/4
f 97/4/4 89/4/4 98/4/4
f 90/5/4 91/5/4 98/5/4
f 91/6/4 92/6/4 99/6/4
f 98/5/4 91/5/4 99/5/4
f 99/6/4 92/6/4 100/6/4
f 95/2/4 96/2/4 101/2/4
f 94/2/4 95/2/4 101/2/4
f 96/1/4 97/1/4 102/1/4
f 101/2/4 96/2/4 102/2/4
f 98/4/4 99/4/4 103/4/4
f 102/1/4 97/1/4 103/1/4
f 97/4/4 98/4/4 103/4/4
f 103/4/4 99/4/4 104/4/4
f 102/1/4 103/1/4 105/1/4
f 105/1/4 103/1/4 106/1/4
f 109/1/5 108/1/5 107/1/5
f 110/1/5 108/1/5 109/1/5
f 115/2/5 112/2/5 111/2/5
f 116/2/5 112/2/5 115/2/5
f 117/2/5 114/2/5 113/2/5
f 118/2/5 114/2/5 117/2/5
f 123/1/5 120/1/5 119/1/5
f 124/1/5 120/1/5 123/1/5
f 125/1/5 122/1/5 121/1/5
f 126/1/5 122/1/5 125/1/5
f 127/1/6 128/1/6 131/1/6
f 131/1/6 128/1/6 132/1/6
f 129/1/6 130/1/6 133/1/6
f 133/1/6 130/1/6 134/1/6
f 135/6/6 136/6/6 139/6/6
f 139/6/6 136/6/6 140/6/6
f 137/4/6 138/4/6 141/4/6
f 141/4/6 138/4/6 142/4/6
f 143/6/6 144/6/6 145/6/6
f 145/6/6 144/6/6 146/6/6
