# Blender v3.5.1 OBJ File: ''
# www.blender.org
mtllib RestartButton.mtl
g Cube_Cube.001
v -1.052045 0.162438 0.184727
v -0.794249 0.038542 0.184727
v -0.976538 0.074830 0.184727
v -0.794249 1.049763 0.184727
v -1.052045 0.925867 0.184727
v -0.976538 1.013475 0.184727
v -0.794249 0.038542 -0.184727
v -1.052045 0.162438 -0.184727
v -0.976538 0.074830 -0.184727
v -1.052045 0.925867 -0.184727
v -0.794249 1.049763 -0.184727
v -0.976538 1.013475 -0.184727
v 0.794249 0.038542 0.184727
v 1.052045 0.162438 0.184727
v 0.976538 0.074830 0.184727
v 1.052045 0.925867 0.184727
v 0.794249 1.049763 0.184727
v 0.976538 1.013475 0.184727
v 1.052045 0.162438 -0.184727
v 0.794249 0.038542 -0.184727
v 0.976538 0.074830 -0.184727
v 0.794249 1.049763 -0.184727
v 1.052045 0.925867 -0.184727
v 0.976538 1.013475 -0.184727
vt 0.375000 0.780630
vt 0.383971 0.758971
vt 0.405630 0.750000
vt 0.594370 0.750000
vt 0.616029 0.758971
vt 0.625000 0.780630
vt 0.625000 0.969370
vt 0.616029 0.991029
vt 0.594370 1.000000
vt 0.405630 1.000000
vt 0.383971 0.991029
vt 0.375000 0.969370
vt 0.405630 0.500000
vt 0.594370 0.500000
vt 0.655630 0.500000
vt 0.844370 0.500000
vt 0.844370 0.750000
vt 0.655630 0.750000
vt 0.405630 0.000000
vt 0.594370 0.000000
vt 0.594370 0.250000
vt 0.405630 0.250000
vt 0.375000 0.280630
vt 0.383971 0.258971
vt 0.616029 0.258971
vt 0.625000 0.280630
vt 0.625000 0.469370
vt 0.616029 0.491029
vt 0.383971 0.491029
vt 0.375000 0.469370
vt 0.155630 0.500000
vt 0.155630 0.750000
vt 0.125000 0.750000
vt 0.125000 0.500000
vt 0.375000 0.250000
vt 0.375000 0.000000
vt 0.875000 0.500000
vt 0.875000 0.750000
vt 0.625000 0.000000
vt 0.625000 0.250000
vt 0.344370 0.750000
vt 0.344370 0.500000
vt 0.375000 0.500000
vt 0.375000 0.750000
vt 0.625000 0.750000
vt 0.625000 0.500000
vn 0.0000 0.0000 1.0000
vn 1.0000 0.0000 0.0000
vn 0.0000 1.0000 0.0000
vn -1.0000 0.0000 0.0000
vn 0.0000 0.0000 -1.0000
vn -0.1952 -0.9808 0.0000
vn -0.7575 -0.6529 0.0000
vn -0.1952 0.9808 0.0000
vn -0.7575 0.6529 0.0000
vn 0.1952 -0.9808 0.0000
vn 0.7575 -0.6529 0.0000
vn 0.1952 0.9808 0.0000
vn 0.7575 0.6529 0.0000
vn 0.0000 -1.0000 0.0000
usemtl Button
s off
f 13/1/1 15/2/1 14/3/1 16/4/1 18/5/1 17/6/1 4/7/1 6/8/1 5/9/1 1/10/1 3/11/1 2/12/1
f 19/13/2 23/14/2 16/4/2 14/3/2
f 22/15/3 11/16/3 4/17/3 17/18/3
f 1/19/4 5/20/4 10/21/4 8/22/4
f 7/23/5 9/24/5 8/22/5 10/21/5 12/25/5 11/26/5 22/27/5 24/28/5 23/14/5 19/13/5 21/29/5 20/30/5
f 7/31/6 2/32/6 3/33/6 9/34/6
f 9/35/7 3/36/7 1/19/7 8/22/7
f 4/17/8 11/16/8 12/37/8 6/38/8
f 6/39/9 12/40/9 10/21/9 5/20/9
f 13/41/10 20/42/10 21/43/10 15/44/10
f 15/44/11 21/43/11 19/13/11 14/3/11
f 22/15/12 17/18/12 18/45/12 24/46/12
f 24/46/13 18/45/13 16/4/13 23/14/13
f 7/31/14 20/42/14 13/41/14 2/32/14
