# Blender v3.5.1 OBJ File: ''
# www.blender.org
mtllib RestartButton_cracked.mtl
g Cube.001_Cube.002
v -0.794249 1.049763 0.184727
v -1.052045 0.925867 0.184727
v -0.976538 1.013475 0.184727
v -1.052045 0.925867 -0.184727
v -0.794249 1.049763 -0.184727
v -0.976538 1.013475 -0.184727
v -0.672335 1.049763 -0.184727
v -1.052045 0.795414 0.184727
v -1.052045 0.895061 0.184727
v -0.489507 1.049763 0.184727
v -1.052045 0.660809 -0.184727
v -0.785300 0.691551 -0.184727
v -0.143029 1.049763 -0.184727
v -0.186005 1.049763 0.184727
v 0.049176 0.573684 -0.184727
v -0.246784 0.216502 -0.184727
v -1.052045 0.394174 0.184727
v -0.239612 0.561047 0.184727
vt 0.844370 0.750000
vt 0.844370 0.500000
vt 0.875000 0.500000
vt 0.875000 0.750000
vt 0.625000 0.000000
vt 0.625000 0.250000
vt 0.594370 0.250000
vt 0.594370 0.000000
vt 0.528840 0.250000
vt 0.562118 0.000000
vt 0.586754 0.000000
vt 0.586754 1.000000
vt 0.625000 0.933161
vt 0.625000 0.969370
vt 0.616029 0.991029
vt 0.594370 1.000000
vt 0.625000 0.295116
vt 0.536441 0.281694
vt 0.616029 0.258971
vt 0.625000 0.280630
vt 0.808161 0.750000
vt 0.829884 0.500000
vt 0.625000 0.358006
vt 0.507301 0.380843
vt 0.418996 0.345678
vt 0.772101 0.750000
vt 0.766994 0.500000
vt 0.462922 1.000000
vt 0.504177 0.903470
vt 0.625000 0.897100
vt 0.562118 1.000000
vn -0.1952 0.9808 0.0000
vn -0.7575 0.6529 0.0000
vn -1.0000 0.0000 0.0000
vn 0.0000 0.0000 1.0000
vn 0.0000 0.0000 -1.0000
vn 0.0000 1.0000 0.0000
usemtl Button.001
s off
f 1/1/1 5/2/1 6/3/1 3/4/1
f 3/5/2 6/6/2 4/7/2 2/8/2
f 11/9/3 8/10/3 9/11/3 2/8/3 4/7/3
f 9/12/4 10/13/4 1/14/4 3/15/4 2/16/4
f 7/17/5 12/18/5 11/9/5 4/7/5 6/19/5 5/20/5
f 10/21/6 7/22/6 5/2/6 1/1/6
f 13/23/5 15/24/5 16/25/5 12/18/5 7/17/5
f 14/26/6 13/27/6 7/22/6 10/21/6
f 17/28/4 18/29/4 14/30/4 10/13/4 9/12/4 8/31/4
g Cube.002_Cube.003
v 1.052045 0.925867 0.184727
v 0.794249 1.049763 0.184727
v 0.976538 1.013475 0.184727
v 0.794249 1.049763 -0.184727
v 1.052045 0.925867 -0.184727
v 0.976538 1.013475 -0.184727
v -0.143029 1.049763 -0.184727
v -0.186005 1.049763 0.184727
v 0.049176 0.573684 -0.184727
v 0.352338 1.049763 0.184727
v 0.134106 0.530002 0.184727
vt 0.655630 0.500000
vt 0.766994 0.500000
vt 0.772101 0.750000
vt 0.708136 0.750000
vt 0.655630 0.750000
vt 0.625000 0.750000
vt 0.625000 0.500000
vt 0.594370 0.750000
vt 0.594370 0.500000
vt 0.507301 0.380843
vt 0.625000 0.358006
vt 0.625000 0.469370
vt 0.616029 0.491029
vt 0.496502 0.859066
vt 0.616029 0.758971
vt 0.625000 0.780630
vt 0.625000 0.833136
vn 0.0000 1.0000 0.0000
vn 0.1952 0.9808 0.0000
vn 0.7575 0.6529 0.0000
vn -0.0000 0.0000 -1.0000
vn -0.0000 0.0000 1.0000
usemtl Button.001
s off
f 22/32/7 25/33/7 26/34/7 28/35/7
f 22/32/8 20/36/8 21/37/8 24/38/8
f 24/38/9 21/37/9 19/39/9 23/40/9
f 23/40/10 27/41/10 25/42/10 22/43/10 24/44/10
f 29/45/11 19/39/11 21/46/11 20/47/11 28/48/11
f 28/35/7 20/36/7 22/32/7
g Cube.003_Cube.004
v 0.794249 0.038542 0.184727
v 1.052045 0.162438 0.184727
v 0.976538 0.074830 0.184727
v 1.052045 0.162438 -0.184727
v 0.794249 0.038542 -0.184727
v 0.976538 0.074830 -0.184727
v 1.052045 0.378338 0.184727
v 1.052045 0.388343 -0.184727
v 0.707907 0.038542 -0.184727
vt 0.405630 0.500000
vt 0.461480 0.500000
vt 0.459006 0.750000
vt 0.405630 0.750000
vt 0.344370 0.750000
vt 0.344370 0.500000
vt 0.375000 0.500000
vt 0.375000 0.750000
vt 0.375000 0.780630
vt 0.383971 0.758971
vt 0.375000 0.459111
vt 0.383971 0.491029
vt 0.375000 0.469370
vn 1.0000 0.0000 0.0000
vn 0.1952 -0.9808 0.0000
vn 0.7575 -0.6529 0.0000
vn 0.0000 0.0000 1.0000
vn -0.0000 0.0000 -1.0000
usemtl Button.001
s off
f 33/49/12 37/50/12 36/51/12 31/52/12
f 30/53/13 34/54/13 35/55/13 32/56/13
f 32/56/14 35/55/14 33/49/14 31/52/14
f 36/51/15 30/57/15 32/58/15 31/52/15
f 38/59/16 37/50/16 33/49/16 35/60/16 34/61/16
g Cube.004_Cube.005
v 0.794249 0.038542 0.184727
v 1.052045 0.925867 0.184727
v 1.052045 0.925867 -0.184727
v 0.049176 0.573684 -0.184727
v 0.419679 0.038542 0.184727
v 1.052045 0.378338 0.184727
v 1.052045 0.388343 -0.184727
v 0.707907 0.038542 -0.184727
v 0.134106 0.530002 0.184727
vt 0.375000 0.780630
vt 0.459006 0.750000
vt 0.594370 0.750000
vt 0.496502 0.859066
vt 0.375000 0.825135
vt 0.461480 0.500000
vt 0.594370 0.500000
vt 0.375000 0.459111
vt 0.507301 0.380843
vn 0.0000 0.0000 1.0000
vn 1.0000 0.0000 0.0000
vn 0.0000 0.0000 -1.0000
usemtl Button.001
s off
f 39/62/17 44/63/17 40/64/17 47/65/17 43/66/17
f 44/63/18 45/67/18 41/68/18 40/64/18
f 46/69/19 42/70/19 41/68/19 45/67/19
g Cube.005_Cube.006
v -0.794249 0.038542 0.184727
v -0.794249 0.038542 -0.184727
v -1.052045 0.162438 -0.184727
v -0.976538 0.074830 -0.184727
v 0.794249 0.038542 0.184727
v 0.794249 0.038542 -0.184727
v -1.052045 0.660809 -0.184727
v -0.785300 0.691551 -0.184727
v 0.049176 0.573684 -0.184727
v -0.246784 0.216502 -0.184727
v 0.419679 0.038542 0.184727
v 0.707907 0.038542 -0.184727
v 0.134106 0.530002 0.184727
vt 0.375000 0.280630
vt 0.383971 0.258971
vt 0.405630 0.250000
vt 0.528840 0.250000
vt 0.536441 0.281694
vt 0.418996 0.345678
vt 0.507301 0.380843
vt 0.375000 0.459111
vt 0.155630 0.500000
vt 0.334111 0.500000
vt 0.299865 0.750000
vt 0.155630 0.750000
vt 0.375000 0.825135
vt 0.496502 0.859066
vt 0.375000 0.969370
vt 0.344370 0.500000
vt 0.344370 0.750000
vn 0.0000 0.0000 -1.0000
vn 0.0000 -1.0000 0.0000
vn 0.0000 0.0000 1.0000
usemtl Button.001
s off
f 49/71/20 51/72/20 50/73/20 54/74/20 55/75/20 57/76/20 56/77/20 59/78/20
f 49/79/21 59/80/21 58/81/21 48/82/21
f 58/83/22 60/84/22 48/85/22
f 58/81/21 59/80/21 53/86/21 52/87/21
g Cube.006_Cube.007
v -1.052045 0.162438 0.184727
v -0.794249 0.038542 0.184727
v -0.976538 0.074830 0.184727
v -0.794249 0.038542 -0.184727
v -1.052045 0.162438 -0.184727
v -0.976538 0.074830 -0.184727
v -1.052045 0.795414 0.184727
v -1.052045 0.660809 -0.184727
v -0.186005 1.049763 0.184727
v -1.052045 0.394174 0.184727
v -0.239612 0.561047 0.184727
v 0.352338 1.049763 0.184727
v 0.134106 0.530002 0.184727
vt 0.405630 0.000000
vt 0.462922 0.000000
vt 0.562118 0.000000
vt 0.528840 0.250000
vt 0.405630 0.250000
vt 0.155630 0.500000
vt 0.155630 0.750000
vt 0.125000 0.750000
vt 0.125000 0.500000
vt 0.375000 0.250000
vt 0.375000 0.000000
vt 0.375000 0.969370
vt 0.496502 0.859066
vt 0.625000 0.833136
vt 0.625000 0.897100
vt 0.504177 0.903470
vt 0.462922 1.000000
vt 0.405630 1.000000
vt 0.383971 0.991029
vn -1.0000 0.0000 0.0000
vn -0.1952 -0.9808 0.0000
vn -0.7575 -0.6529 0.0000
vn -0.0000 0.0000 1.0000
usemtl Button.001
s off
f 61/88/23 70/89/23 67/90/23 68/91/23 65/92/23
f 64/93/24 62/94/24 63/95/24 66/96/24
f 66/97/25 63/98/25 61/88/25 65/92/25
f 62/99/26 73/100/26 72/101/26 69/102/26 71/103/26 70/104/26 61/105/26 63/106/26
